<svg width="98px" height="98px" viewBox="0 0 98 98" version="1.1" xmlns="http://www.w3.org/2000/svg"
	xmlns:xlink="http://www.w3.org/1999/xlink">
	<g id="Page-1" stroke="none" stroke-width="1" fill="none" fill-rule="evenodd">
		<path
			d="M97.407,37.9968 L53.8656,74.131 C50.8722,76.615 46.5344,76.615 43.5411,74.131 L0,37.9968 L43.5412,1.863 C46.5346,-0.621 50.8724,-0.621 53.8658,1.863 L97.407,37.9968 Z"
			id="Path" fill="#4421AA" fill-rule="nonzero"></path>
		<path
			d="M53.8653,1.8631 C52.3688,0.621 50.536,0 48.7031,0 L48.7031,75.994 C50.536,75.994 52.3688,75.373 53.8653,74.13 L97.407,37.9969 L53.8653,1.8631 Z"
			id="Path" fill="#4421AA" fill-rule="nonzero"></path>
		<path
			d="M88.656,47.3233 L88.656,19.9798 C88.656,17.8783 86.953,16.1748 84.851,16.1748 L12.5569,16.1748 C10.4554,16.1748 8.752,17.8783 8.752,19.9798 L8.752,47.3233 L43.8331,76.549 C46.6548,78.9 50.7529,78.9 53.5749,76.549 L88.656,47.3233 Z"
			id="Path" fill="#FFFFFF" fill-rule="nonzero"></path>
		<path
			d="M84.85,16.1748 L48.7031,16.1748 L48.7031,78.312 C50.433,78.312 52.1632,77.724 53.574,76.549 L88.655,47.3233 L88.655,19.9798 C88.655,17.8783 86.952,16.1748 84.85,16.1748 L84.85,16.1748 Z"
			id="Path" fill="#FFFFFF" fill-rule="nonzero"></path>
		<path
			d="M48.5489,25.751 C44.9552,25.751 41.4422,26.8166 38.4542,28.8132 C35.4662,30.8097 33.1373,33.6475 31.762,36.9676 C30.3868,40.2877 30.027,43.9411 30.728,47.4658 C31.4291,50.9904 33.1597,54.228 35.7008,56.7691 C38.2419,59.3102 41.4795,61.0407 45.0041,61.7418 C48.5288,62.4429 52.1821,62.0831 55.5023,60.7079 C58.8224,59.3326 61.6602,57.0037 63.6567,54.0157 C65.6533,51.0276 66.7189,47.5147 66.7189,43.921 C66.7134,39.1037 64.7973,34.4853 61.391,31.0789 C57.9846,27.6726 53.3662,25.7565 48.5489,25.751 L48.5489,25.751 Z M57.8935,41.0657 L47.5729,51.3811 C47.3319,51.6224 47.0456,51.8139 46.7305,51.9445 C46.4153,52.0751 46.0776,52.1423 45.7365,52.1423 C45.3953,52.1423 45.0576,52.0751 44.7425,51.9445 C44.4273,51.8139 44.1411,51.6224 43.9,51.3811 L39.2043,46.6932 C38.7176,46.2051 38.4447,45.5437 38.4456973,44.8544 C38.4467,44.1651 38.7214,43.5044 39.2095,43.0177 C39.6976,42.5309 40.3591,42.2581 41.0484,42.259 C41.7377,42.26 42.3983,42.5348 42.8851,43.0229 L45.7404,45.8781 L54.2128,37.3979 C54.6991,36.9099 55.3595,36.635 56.0485,36.6336961 C56.7376,36.6325 57.3989,36.9051 57.887,37.3915 C58.3751,37.8778 58.65,38.5382 58.6512039,39.2272 C58.6524,39.9163 58.3799,40.5776 57.8935,41.0657 L57.8935,41.0657 Z"
			id="Shape" fill="#7545FF" fill-rule="nonzero"></path>
		<path
			d="M97.407,37.9971 L53.8656,74.131 C50.8722,76.615 46.5344,76.615 43.5411,74.131 L0,37.9971 L0,89.323 C0,93.788 3.6191,97.407 8.0836,97.407 L89.323,97.407 C93.788,97.407 97.407,93.788 97.407,89.323 L97.407,37.9971 Z"
			id="Path" fill="#7545FF" fill-rule="nonzero"></path>
		<path
			d="M53.8653,74.131 C52.3686,75.373 50.5358,75.994 48.7031,75.994 L48.7031,97.407 L89.323,97.407 C93.787,97.407 97.407,93.788 97.407,89.323 L97.407,37.9971 L53.8653,74.131 Z"
			id="Path" fill="#7545FF" fill-rule="nonzero"></path>
		<path
			d="M53.8669,74.131 C50.8735,76.615 46.5357,76.615 43.5423,74.131 L38.964,70.331 L2.5947,95.255 C4.0364,96.59 5.9648,97.407 8.0849,97.407 L89.324,97.407 C91.444,97.407 93.373,96.59 94.814,95.255 L58.4454,70.331 L53.8669,74.131 Z"
			id="Path" fill="#7545FF" fill-rule="nonzero"></path>
		<path
			d="M94.813,95.255 L58.4438,70.331 L53.8653,74.13 C52.3686,75.372 50.5358,75.994 48.7031,75.994 L48.7031,97.407 L89.323,97.407 C91.443,97.407 93.371,96.59 94.813,95.255 Z"
			id="Path" fill="#7545FF" fill-rule="nonzero"></path>
	</g>
</svg>